<svg width="96" height="86" fill="none" xmlns="http://www.w3.org/2000/svg"><path fill-rule="evenodd" clip-rule="evenodd" d="M66.088 0H29.912a11.831 11.831 0 00-10.24 5.89L1.584 37.11a11.746 11.746 0 000 11.782l18.088 31.218A11.831 11.831 0 0029.912 86h36.176a11.83 11.83 0 0010.24-5.89l18.088-31.22a11.746 11.746 0 000-11.781L76.328 5.89A11.83 11.83 0 0066.088 0z" fill="#F2F2F2"/><path d="M34.391 24.133h-4.174c-.574 0-1.043.472-1.043 1.048v3.144l6.26-1.048V25.18c0-.587-.469-1.048-1.043-1.048z" fill="#C6C6C6"/><path d="M68.826 27.277H66.74l-2.556-5.124A2.092 2.092 0 0062.325 21h-9.944c-.793 0-1.513.45-1.868 1.153l-2.556 5.124H29.173A4.182 4.182 0 0025 31.468v29.34A4.182 4.182 0 0029.174 65h39.652A4.182 4.182 0 0073 60.809v-29.34a4.182 4.182 0 00-4.174-4.192z" fill="#E6E6E6"/><path d="M68.826 65H29.174A4.181 4.181 0 0125 60.809V39.85h48V60.81A4.181 4.181 0 0168.826 65z" fill="#666"/><path d="M49 58.713c-6.908 0-12.522-5.638-12.522-12.575 0-6.936 5.614-12.574 12.522-12.574s12.522 5.638 12.522 12.574c0 6.937-5.614 12.575-12.522 12.575z" fill="#C6C6C6"/><path d="M49 56.617c5.763 0 10.435-4.691 10.435-10.479 0-5.787-4.672-10.478-10.435-10.478-5.763 0-10.435 4.691-10.435 10.478 0 5.788 4.672 10.48 10.435 10.48z" fill="#666"/><path d="M49 52.426c3.458 0 6.261-2.815 6.261-6.288 0-3.472-2.803-6.287-6.26-6.287-3.459 0-6.262 2.815-6.262 6.287 0 3.473 2.803 6.288 6.261 6.288z" fill="#444"/><path d="M60.478 27.277h-6.26a1.049 1.049 0 01-1.044-1.048V25.18c0-.576.47-1.048 1.043-1.048h6.261c.574 0 1.044.472 1.044 1.048v1.048c0 .576-.47 1.048-1.044 1.048z" fill="#fff"/><path d="M75.815 20.767l-56.264 44.88" stroke="#E74848" stroke-width="2"/></svg>